<svg width="20" height="20" viewBox="0 0 20 20" fill="none" xmlns="http://www.w3.org/2000/svg">
<path fill-rule="evenodd" clip-rule="evenodd" d="M5.44794 4.95874H4.17192C3.29018 4.95874 2.55828 5.64022 2.49537 6.52003L1.67223 18.046C1.63909 18.5114 1.80045 18.9695 2.11837 19.311C2.43678 19.6524 2.88197 19.8465 3.34877 19.8465H16.6536C17.1204 19.8465 17.5656 19.6524 17.884 19.311C18.2019 18.9695 18.3633 18.5114 18.3301 18.046L17.507 6.52003C17.4441 5.64022 16.7122 4.95874 15.8304 4.95874H14.5635V4.71861C14.5635 2.19875 12.521 0.15625 10.0012 0.15625C7.57352 0.15625 5.3298 2.08973 5.43881 4.71861C5.44218 4.79834 5.44506 4.87854 5.44794 4.95874ZM14.5635 6.39949V10.0014C14.5635 10.399 14.2408 10.7217 13.8432 10.7217C13.4455 10.7217 13.1228 10.399 13.1228 10.0014V6.39949H6.87956V10.0014C6.87956 10.399 6.55683 10.7217 6.15919 10.7217C5.76154 10.7217 5.43881 10.399 5.43881 10.0014C5.43881 10.0014 5.50125 8.31808 5.4806 6.39949H4.17192C4.04609 6.39949 3.9414 6.49697 3.93276 6.62232L3.10912 18.1483C3.10432 18.215 3.12738 18.2804 3.173 18.3294C3.21863 18.3779 3.28202 18.4057 3.34877 18.4057H16.6536C16.7203 18.4057 16.7837 18.3779 16.8294 18.3294C16.875 18.2804 16.898 18.215 16.8932 18.1483L16.0696 6.62232C16.061 6.49697 15.9563 6.39949 15.8304 6.39949H14.5635ZM13.1228 4.95874V4.71861C13.1228 2.99452 11.7253 1.597 10.0012 1.597C8.27709 1.597 6.87956 2.99452 6.87956 4.71861V4.95874H13.1228Z" fill="#333333"/>
</svg>
