<svg width="36" height="24" viewBox="0 0 36 24" fill="none" xmlns="http://www.w3.org/2000/svg">
<g clip-path="url(#clip0_4319_4858)">
<path d="M0.249319 3C0.249319 1.48098 1.48073 0.249563 2.99976 0.249563H32.9998C34.5188 0.249563 35.7502 1.48098 35.7502 3V21C35.7502 22.519 34.5188 23.7504 32.9998 23.7504H2.99976C1.48073 23.7504 0.249319 22.519 0.249319 21V3Z" fill="white" stroke="#E0E0E0" stroke-width="0.499127"/>
<path d="M29.337 12.0784C29.337 6.70941 24.8557 2.9985 19.9456 3.00012H15.7201C10.7515 2.99834 6.66187 6.71054 6.66187 12.0784C6.66187 16.9891 10.7516 21.0238 15.7201 21H19.9456C24.8553 21.0236 29.337 16.9878 29.337 12.0784Z" fill="#0079BE"/>
<path d="M15.7468 3.75964C11.2066 3.76105 7.52774 7.44862 7.52612 11.9997C7.52726 16.5501 11.2063 20.2371 15.7468 20.2388C20.288 20.2374 23.968 16.5502 23.9685 11.9997C23.9679 7.44851 20.2881 3.76126 15.7468 3.75964V3.75964Z" fill="white"/>
<path d="M10.5508 11.9793C10.5551 9.75538 11.9413 7.85893 13.8959 7.10535V16.8522C11.9413 16.099 10.555 14.2036 10.5508 11.9794V11.9793ZM17.6254 16.8546V7.10562C19.5809 7.85742 20.9692 9.75494 20.9727 11.9799C20.9691 14.2056 19.5809 16.1017 17.6254 16.8549V16.8546Z" fill="#0079BE"/>
</g>
<defs>
<clipPath id="clip0_4319_4858">
<rect width="36" height="24" fill="white"/>
</clipPath>
</defs>
</svg>
