<svg width="36" height="24" viewBox="0 0 36 24" fill="none" xmlns="http://www.w3.org/2000/svg">
<g clip-path="url(#clip0_4319_4859)">
<path d="M0.249807 3C0.249807 1.48098 1.48122 0.249563 3.00024 0.249563H33.0002C34.5193 0.249563 35.7507 1.48098 35.7507 3V21C35.7507 22.519 34.5193 23.7504 33.0002 23.7504H3.00024C1.48122 23.7504 0.249807 22.519 0.249807 21V3Z" fill="white" stroke="#E0E0E0" stroke-width="0.499127"/>
<path d="M17.5371 11.5449V13.0283H10.7148V11.5449H17.5371ZM14.9258 8.75586V16.002H13.333V8.75586H14.9258ZM25.6514 13.4521V14.7646H18.4736L18.4189 13.7734L22.7119 7.04688H24.0312L22.6025 9.49414L20.1348 13.4521H25.6514ZM24.4072 7.04688V17H22.7598V7.04688H24.4072Z" fill="#333333"/>
</g>
<defs>
<clipPath id="clip0_4319_4859">
<rect width="36" height="24" fill="white"/>
</clipPath>
</defs>
</svg>
