<svg width="32" height="32" viewBox="0 0 32 32" fill="none" xmlns="http://www.w3.org/2000/svg">
<path fill-rule="evenodd" clip-rule="evenodd" d="M16.4048 3.00687C13.8766 2.92267 11.3222 3.61245 9.1169 5.0845C6.64003 6.73957 4.90906 9.18363 4.11177 11.9159C3.89159 11.889 3.62793 11.9008 3.31487 11.9894C2.146 12.321 1.26688 13.2788 0.871592 14.1224C0.358903 15.2217 0.142681 16.6755 0.370762 18.1764C0.597262 19.6726 1.22933 20.9059 2.0199 21.6716C2.81285 22.4376 3.70818 22.6867 4.59757 22.4997C5.92179 22.2171 6.57836 22.0056 6.39297 20.7719L5.49527 14.7916C5.67631 11.555 7.35194 8.50809 10.1545 6.63442C13.9058 4.12869 18.824 4.28918 22.4021 7.03604C24.8913 8.94449 26.3364 11.804 26.5032 14.8058L25.8755 18.9891C24.4754 22.8207 21.0044 25.4746 16.9879 25.8513H14.3134C13.6232 25.8513 13.0674 26.4071 13.0674 27.0965V27.7535C13.0674 28.4432 13.6232 28.999 14.3134 28.999H17.6856C18.3753 28.999 18.9287 28.4432 18.9287 27.7535V27.41C21.9574 26.6708 24.6011 24.8094 26.3226 22.2135L27.4029 22.5001C28.282 22.7282 29.188 22.4376 29.9806 21.672C30.7712 20.9059 31.4028 19.673 31.6297 18.1768C31.8586 16.6759 31.636 15.2244 31.1293 14.1228C30.6206 13.0211 29.8628 12.3214 28.988 12.0704C28.6216 11.9649 28.2239 11.9261 27.8828 11.9159C27.1618 9.44531 25.6775 7.1985 23.5382 5.55806C21.4349 3.9441 18.9331 3.08988 16.4048 3.00687Z" fill="#333333"/>
<path fill-rule="evenodd" clip-rule="evenodd" d="M20.3513 13.7658C21.2427 13.7658 21.9653 14.4884 21.9673 15.3821C21.9653 16.2735 21.2427 16.998 20.3513 16.998C19.4576 16.998 18.733 16.2735 18.733 15.3821C18.733 14.4888 19.458 13.7658 20.3513 13.7658ZM15.9992 13.7658C16.8926 13.7658 17.6151 14.4884 17.6151 15.3821C17.6151 16.2735 16.8926 16.998 15.9992 16.998C15.1051 16.998 14.3825 16.2735 14.3825 15.3821C14.3825 14.4888 15.1051 13.7658 15.9992 13.7658ZM11.6487 13.7658C12.54 13.7658 13.2646 14.4884 13.2646 15.3821C13.2646 16.2735 12.54 16.998 11.6487 16.998C10.7553 16.998 10.0323 16.2735 10.0323 15.3821C10.0323 14.4888 10.7553 13.7658 11.6487 13.7658ZM15.9992 6.82373C11.2597 6.82373 7.44043 10.5173 7.44043 15.3821C7.44043 17.7187 8.3239 19.7836 9.76314 21.2988L9.25243 23.5883C9.08404 24.3417 9.60661 24.8485 10.2837 24.4714L12.5195 23.2242C13.582 23.6855 14.7572 23.9405 15.9992 23.9405C20.7403 23.9405 24.5572 20.2493 24.5572 15.3821C24.5572 10.5173 20.7403 6.82373 15.9992 6.82373Z" fill="#333333"/>
</svg>
