<svg width="32" height="32" viewBox="0 0 32 32" fill="none" xmlns="http://www.w3.org/2000/svg">
<path d="M16.8472 16.8755C21.1895 16.8755 24.7222 13.3428 24.7222 9.00049C24.7222 4.6582 21.1895 1.12549 16.8472 1.12549C12.5049 1.12549 8.97217 4.6582 8.97217 9.00049C8.97217 13.3428 12.5049 16.8755 16.8472 16.8755ZM16.8472 9.37549C15.561 9.37549 14.5146 8.32934 14.5146 7.04321C14.5146 5.8855 15.3648 4.92966 16.4722 4.74884V4.00049C16.4722 3.79346 16.6401 3.62549 16.8472 3.62549C17.0542 3.62549 17.2222 3.79346 17.2222 4.00049V4.74884C18.3296 4.92965 19.1797 5.8855 19.1797 7.04321C19.1797 7.25024 19.0117 7.41821 18.8047 7.41821C18.5977 7.41821 18.4297 7.25024 18.4297 7.04321C18.4297 6.17065 17.7197 5.46094 16.8472 5.46094C15.9746 5.46094 15.2646 6.17065 15.2646 7.04321C15.2646 7.91577 15.9746 8.62549 16.8472 8.62549C18.1333 8.62549 19.1797 9.67187 19.1797 10.958C19.1797 12.1157 18.3296 13.0716 17.2222 13.2524V14.0005C17.2222 14.2075 17.0542 14.3755 16.8472 14.3755C16.6401 14.3755 16.4722 14.2075 16.4722 14.0005V13.2524C15.3648 13.0716 14.5146 12.1157 14.5146 10.958C14.5146 10.751 14.6826 10.583 14.8896 10.583C15.0967 10.583 15.2646 10.751 15.2646 10.958C15.2646 11.8306 15.9746 12.5403 16.8472 12.5403C17.7197 12.5403 18.4297 11.8306 18.4297 10.958C18.4297 10.0854 17.7197 9.37549 16.8472 9.37549Z" fill="#333333"/>
<path d="M26.9722 9.00051C26.9722 11.331 26.1831 13.5496 24.7326 15.345L24.7954 14.511C24.8111 14.3045 24.6563 14.1245 24.4497 14.1089C24.2456 14.0938 24.063 14.2478 24.0474 14.4549L23.9038 16.3635C23.8882 16.5701 24.043 16.75 24.2495 16.7656L26.1582 16.9092C26.3621 16.9252 26.5454 16.7706 26.5606 16.5633C26.5762 16.3567 26.4214 16.1768 26.2149 16.1612L25.0847 16.0763C26.7844 14.1033 27.7222 11.6211 27.7222 9.00051C27.7222 6.05593 26.5601 3.29689 24.4497 1.23146C24.3023 1.08693 24.065 1.08889 23.9195 1.23733C23.7744 1.38528 23.7774 1.62258 23.9253 1.7676C25.8902 3.69045 26.9722 6.2593 26.9722 9.00051Z" fill="#333333"/>
<path d="M30.5442 22.0682C29.9446 20.9937 28.7009 20.4859 27.5208 20.8318L20.3184 22.9481C19.9088 23.5783 18.5338 25.3585 16.0637 25.3585C15.5325 25.3585 14.9504 25.2759 14.3171 25.0814C14.1189 25.0208 14.0076 24.8111 14.0686 24.6131C14.1291 24.4156 14.3376 24.3028 14.5369 24.3646C17.3607 25.2302 18.9481 23.5832 19.5288 22.7817C19.2346 21.6328 18.3705 20.7017 17.1882 20.3462L12.1169 18.8211C12.0427 18.7991 11.9626 18.8004 11.8884 18.8253L7.75269 20.2299V28.1781C10.4182 28.983 16.2077 30.5002 17.5999 30.8633C17.6311 30.8716 17.6628 30.8755 17.6946 30.8755C17.7468 30.8755 17.7986 30.8646 17.8469 30.8431L29.323 25.7325C29.9924 25.4344 30.509 24.8648 30.741 24.1695C30.9724 23.4742 30.9006 22.7083 30.5442 22.0682Z" fill="#333333"/>
<path d="M6.62744 18.8052H1.50049C1.29346 18.8052 1.12549 18.9731 1.12549 19.1802V28.8762C1.12549 29.0833 1.29346 29.2512 1.50049 29.2512H6.62744C6.83447 29.2512 7.00244 29.0833 7.00244 28.8762V19.1802C7.00244 18.9731 6.83447 18.8052 6.62744 18.8052ZM4.54346 21.5359H3.58447C3.37744 21.5359 3.20947 21.3679 3.20947 21.1609C3.20947 20.9539 3.37744 20.7859 3.58447 20.7859H4.54346C4.75049 20.7859 4.91846 20.9539 4.91846 21.1609C4.91846 21.3679 4.75049 21.5359 4.54346 21.5359Z" fill="#333333"/>
</svg>
