<svg width="32" height="32" viewBox="0 0 32 32" fill="none" xmlns="http://www.w3.org/2000/svg">
<g clip-path="url(#clip0_4319_5029)">
<path d="M16 8.98438L19.5173 10.8337L18.8455 6.91699L21.6929 4.14209L17.7588 3.5708L16 0L14.2412 3.5708L10.3071 4.14209L13.1545 6.91699L12.4827 10.8337L16 8.98438Z" fill="#333333"/>
<path d="M27.8835 9.94556L26.1248 6.38159L24.366 9.94556L20.4338 10.5168L23.2793 13.291L22.6074 17.2085L26.1248 15.3591L29.644 17.2085L28.9702 13.291L32 10.5168L27.8835 9.94556Z" fill="#333333"/>
<path d="M3.02979 13.291L2.35596 17.2085L5.87524 15.3591L9.39258 17.2085L8.7207 13.291L11.5662 10.5168L7.63403 9.94556L5.87524 6.38159L4.11646 9.94556L0 10.5168L3.02979 13.291Z" fill="#333333"/>
<path d="M20.6875 17.875C20.6875 15.2905 18.5845 13.1875 16 13.1875C13.4155 13.1875 11.3125 15.2905 11.3125 17.875C11.3125 20.4595 13.4155 22.5625 16 22.5625C18.5845 22.5625 20.6875 20.4595 20.6875 17.875Z" fill="#333333"/>
<path d="M9.4375 29.125V32H22.5625V29.125C22.5625 25.5068 19.6182 22.5625 16 22.5625C12.3818 22.5625 9.4375 25.5068 9.4375 29.125Z" fill="#333333"/>
<path d="M30.0625 31C30.0625 28.4155 27.9595 26.3125 25.375 26.3125C24.8901 26.3125 24.4316 26.4077 23.9915 26.5449C24.2568 27.3633 24.4375 28.2195 24.4375 29.125V32H30.0625V31Z" fill="#333333"/>
<path d="M29.125 22.5625C29.125 20.4944 27.4431 18.8125 25.375 18.8125C23.3069 18.8125 21.625 20.4944 21.625 22.5625C21.625 22.6819 21.6492 22.7947 21.6602 22.9111C22.5847 23.7539 23.3303 24.7825 23.8093 25.959C24.2874 26.1804 24.8145 26.3125 25.375 26.3125C27.4431 26.3125 29.125 24.6306 29.125 22.5625Z" fill="#333333"/>
<path d="M10.3398 22.9111C10.3508 22.7947 10.375 22.6819 10.375 22.5625C10.375 20.4944 8.69312 18.8125 6.625 18.8125C4.55688 18.8125 2.875 20.4944 2.875 22.5625C2.875 24.6306 4.55688 26.3125 6.625 26.3125C7.18555 26.3125 7.71265 26.1804 8.19067 25.9592C8.66968 24.7825 9.41528 23.7539 10.3398 22.9111Z" fill="#333333"/>
<path d="M1.9375 31V32H7.5625V29.125C7.5625 28.2195 7.74316 27.3633 8.00854 26.5449C7.56836 26.4077 7.10986 26.3125 6.625 26.3125C4.04053 26.3125 1.9375 28.4155 1.9375 31Z" fill="#333333"/>
</g>
<defs>
<clipPath id="clip0_4319_5029">
<rect width="32" height="32" fill="white"/>
</clipPath>
</defs>
</svg>
