<svg width="113" height="24" viewBox="0 0 113 24" fill="none" xmlns="http://www.w3.org/2000/svg">
<path d="M17.9673 10.6968C17.6636 11.0019 17.431 11.37 17.2861 11.775C17.1412 12.18 17.0876 12.6119 17.129 13.04L17.1146 13.0256C17.1572 13.5296 17.0891 14.0366 16.9151 14.5116C16.7411 14.9864 16.4654 15.4177 16.1073 15.7753C15.749 16.1328 15.317 16.4081 14.8412 16.5817C14.3654 16.7554 13.8574 16.8234 13.3527 16.7808L13.3671 16.7952C12.7633 16.7392 12.1569 16.8703 11.6304 17.1708C11.104 17.4714 10.6833 17.9267 10.4256 18.4747C10.168 19.0227 10.0858 19.6366 10.1905 20.2329C10.2952 20.8292 10.5816 21.3787 11.0106 21.8065C11.4396 22.2344 11.9903 22.5197 12.5877 22.6236C13.1852 22.7276 13.8001 22.6451 14.3488 22.3874C14.8976 22.1296 15.3533 21.7093 15.6539 21.1836C15.9545 20.6578 16.0854 20.0524 16.0286 19.4496L16.0439 19.464C16.0012 18.9602 16.0693 18.4531 16.2433 17.9781C16.4173 17.5032 16.693 17.072 17.0512 16.7144C17.4094 16.3568 17.8415 16.0816 18.3172 15.9079C18.793 15.7343 19.301 15.6663 19.8058 15.7088L19.7905 15.6944C20.2837 15.7387 20.7802 15.658 21.2339 15.4597C21.6875 15.2615 22.0838 14.9521 22.3857 14.5603C22.6877 14.1686 22.8858 13.707 22.9615 13.2185C23.0372 12.73 22.9882 12.2303 22.8189 11.7656C22.6496 11.3011 22.3656 10.8867 21.9932 10.5608C21.6208 10.235 21.172 10.0083 20.6884 9.90171C20.2048 9.79515 19.7021 9.81211 19.2268 9.95107C18.7516 10.0901 18.3192 10.3466 17.9697 10.6968H17.9673Z" fill="black"/>
<path d="M12.055 14.9088L12.0398 14.8944C12.4688 14.9375 12.9021 14.8849 13.3083 14.7405C13.7145 14.596 14.0835 14.3633 14.3885 14.059C14.6934 13.7548 14.927 13.3866 15.0719 12.9813C15.217 12.5759 15.27 12.1435 15.2271 11.7152L15.2423 11.7296C15.1997 11.2257 15.2678 10.7186 15.4417 10.2437C15.6157 9.76878 15.8915 9.3375 16.2496 8.9799C16.6079 8.62238 17.0399 8.3471 17.5157 8.1735C17.9915 7.99979 18.4994 7.93185 19.0042 7.97438L18.989 7.95998C19.5929 8.01662 20.1995 7.88587 20.7262 7.58566C21.253 7.28546 21.674 6.83036 21.9321 6.28246C22.1902 5.73458 22.2726 5.12055 22.1683 4.52414C22.0639 3.92774 21.7778 3.37799 21.3489 2.94988C20.92 2.52178 20.3693 2.23614 19.7718 2.13197C19.1744 2.02778 18.5593 2.11011 18.0104 2.36773C17.4615 2.62534 17.0056 3.0457 16.7049 3.57146C16.4041 4.09722 16.2731 4.7028 16.3299 5.30558L16.3154 5.29038C16.3582 5.7943 16.2902 6.30145 16.1163 6.77642C15.9424 7.2514 15.6666 7.68275 15.3084 8.04038C14.9502 8.3979 14.5181 8.67318 14.0423 8.84678C13.5664 9.02038 13.0584 9.08822 12.5535 9.04558L12.568 9.06078C12.139 9.01766 11.7056 9.07022 11.2995 9.2147C10.8933 9.3591 10.5243 9.5919 10.2193 9.89614C9.91427 10.2004 9.68081 10.5685 9.53575 10.9739C9.39078 11.3793 9.3378 11.8117 9.38068 12.24L9.36625 12.2256C9.40873 12.7294 9.34053 13.2365 9.16654 13.7113C8.99247 14.1861 8.71677 14.6174 8.35862 14.9749C8.00042 15.3325 7.56842 15.6077 7.09273 15.7814C6.61703 15.9551 6.10909 16.0232 5.60435 15.9808L5.61877 15.9952C5.01491 15.9385 4.40825 16.0693 3.88155 16.3695C3.35485 16.6697 2.93374 17.1248 2.67567 17.6727C2.41759 18.2206 2.33511 18.8346 2.43948 19.431C2.54385 20.0274 2.82999 20.5772 3.25886 21.0053C3.68774 21.4334 4.23846 21.719 4.83594 21.8232C5.43341 21.9273 6.04853 21.845 6.5974 21.5874C7.14627 21.3298 7.60218 20.9095 7.90292 20.3837C8.2037 19.8579 8.33465 19.2524 8.27791 18.6496L8.29314 18.664C8.2505 18.1601 8.31862 17.653 8.49261 17.1781C8.66652 16.7032 8.9423 16.2719 9.30045 15.9143C9.65869 15.5568 10.0907 15.2815 10.5665 15.1079C11.0423 14.9342 11.5502 14.8662 12.055 14.9088Z" fill="black"/>
<path d="M6.68381 13.3032C6.98757 12.9982 7.22013 12.6301 7.3649 12.225C7.50967 11.82 7.56308 11.388 7.52131 10.96L7.53652 10.9744C7.49389 10.4704 7.56198 9.96311 7.73606 9.48807C7.91013 9.01303 8.18601 8.58167 8.54441 8.22407C8.90281 7.86648 9.33502 7.59129 9.81099 7.41773C10.287 7.24416 10.7951 7.1764 11.3 7.21919L11.2848 7.20479C11.8885 7.26124 12.4949 7.13045 13.0213 6.83026C13.5478 6.53008 13.9686 6.07509 14.2266 5.52737C14.4845 4.97964 14.5669 4.36584 14.4626 3.76966C14.3582 3.17348 14.0721 2.62394 13.6434 2.19599C13.2147 1.76804 12.6642 1.4825 12.0669 1.37832C11.4697 1.27414 10.8548 1.3564 10.3061 1.61385C9.75737 1.87131 9.3016 2.29144 9.0009 2.81696C8.70013 3.34248 8.56909 3.94781 8.62567 4.55039L8.61125 4.53599C8.65388 5.03987 8.58576 5.54696 8.41177 6.02188C8.23778 6.49679 7.96211 6.92808 7.6039 7.28564C7.2457 7.64321 6.81364 7.91844 6.33788 8.09207C5.86212 8.26575 5.35412 8.33375 4.84934 8.29119L4.86377 8.30559C4.37054 8.26143 3.87413 8.34231 3.42054 8.54063C2.96695 8.73895 2.57084 9.04839 2.26893 9.44023C1.96703 9.83199 1.76909 10.2936 1.69345 10.7821C1.61782 11.2706 1.66694 11.7703 1.83626 12.2348C2.00558 12.6993 2.28963 13.1137 2.66207 13.4394C3.03452 13.7653 3.48332 13.9919 3.96689 14.0985C4.45045 14.2049 4.95313 14.1879 5.42835 14.0489C5.90357 13.9099 6.33594 13.6534 6.68541 13.3032H6.68381Z" fill="black"/>
<path d="M31.5098 5.32397H33.89V16.8864H31.5098V5.32397Z" fill="black"/>
<path d="M35.2379 12.9272C35.2346 12.0963 35.4784 11.2831 35.9384 10.5906C36.3985 9.8981 37.054 9.35746 37.8221 9.03722C38.5902 8.7169 39.4362 8.63138 40.253 8.79146C41.0698 8.95154 41.8207 9.34994 42.4105 9.93634C43.0002 10.5227 43.4024 11.2706 43.566 12.0853C43.7297 12.9 43.6474 13.7449 43.3296 14.5129C43.0118 15.2808 42.4729 15.9375 41.781 16.3994C41.0891 16.8614 40.2754 17.108 39.443 17.108C38.8905 17.1143 38.3422 17.0106 37.8303 16.8029C37.3183 16.5952 36.853 16.2878 36.4615 15.8986C36.0699 15.5093 35.7601 15.046 35.5501 14.5359C35.3399 14.0257 35.2338 13.4788 35.2379 12.9272ZM41.2679 12.9272C41.2579 12.5691 41.1424 12.2218 40.9359 11.9287C40.7293 11.6358 40.4408 11.41 40.1064 11.2799C39.772 11.1496 39.4066 11.1207 39.0558 11.1967C38.705 11.2727 38.3845 11.4501 38.1342 11.707C37.884 11.9638 37.715 12.2886 37.6488 12.6407C37.5824 12.9928 37.6214 13.3567 37.7611 13.6867C37.9008 14.0168 38.1348 14.2984 38.4339 14.4964C38.7331 14.6944 39.0841 14.8 39.443 14.8C39.6888 14.8066 39.9333 14.7622 40.1612 14.6697C40.3889 14.5772 40.5951 14.4387 40.7665 14.2627C40.9379 14.0867 41.071 13.8772 41.1573 13.6474C41.2436 13.4175 41.2812 13.1723 41.2679 12.9272Z" fill="black"/>
<path d="M53.1347 8.96721V16.4872C53.1347 19.148 51.0558 20.2728 48.9456 20.2728C48.2027 20.3283 47.4587 20.1785 46.7954 19.8398C46.1321 19.5011 45.5751 18.9866 45.1853 18.3528L47.2161 17.1808C47.38 17.5112 47.641 17.7838 47.9642 17.9621C48.2875 18.1403 48.6576 18.2158 49.025 18.1784C49.2598 18.2109 49.4989 18.1902 49.7247 18.118C49.9504 18.0458 50.157 17.9238 50.3291 17.7611C50.5013 17.5984 50.6346 17.3992 50.7192 17.1781C50.8037 16.957 50.8374 16.7198 50.8178 16.484V15.76C50.539 16.1004 50.1843 16.3709 49.7819 16.5497C49.3795 16.7285 48.9408 16.8106 48.5008 16.7896C47.454 16.7566 46.4611 16.3184 45.7323 15.5675C45.0035 14.8167 44.5959 13.8122 44.5959 12.7668C44.5959 11.7214 45.0035 10.7169 45.7323 9.96609C46.4611 9.21521 47.454 8.77697 48.5008 8.74401C48.9408 8.72297 49.3795 8.80513 49.7819 8.98393C50.1843 9.16273 50.539 9.43321 50.8178 9.77361V8.96561L53.1347 8.96721ZM50.8186 12.768C50.8346 12.3851 50.7354 12.0062 50.5338 11.68C50.3323 11.3538 50.0375 11.0953 49.6875 10.9378C49.3375 10.7802 48.9483 10.7308 48.57 10.7959C48.1916 10.861 47.8415 11.0377 47.5645 11.3032C47.2876 11.5686 47.0966 11.9107 47.0161 12.2854C46.9356 12.6602 46.9693 13.0504 47.1129 13.4058C47.2565 13.7613 47.5033 14.0658 47.8216 14.28C48.1399 14.4942 48.5153 14.6085 48.8991 14.608C49.1493 14.6254 49.4002 14.5904 49.6359 14.5051C49.8716 14.4198 50.0868 14.2862 50.2676 14.1129C50.4484 13.9395 50.5909 13.7303 50.6858 13.4986C50.7807 13.267 50.8259 13.0182 50.8186 12.768Z" fill="black"/>
<path d="M54.4828 12.9272C54.4795 12.0963 54.7232 11.2831 55.1833 10.5906C55.6433 9.8981 56.2989 9.35746 57.067 9.03722C57.8351 8.7169 58.6811 8.63138 59.4979 8.79146C60.3147 8.95154 61.0655 9.34994 61.6553 9.93634C62.2451 10.5227 62.6472 11.2706 62.8109 12.0853C62.9745 12.9 62.8922 13.7449 62.5745 14.5129C62.2567 15.2808 61.7177 15.9375 61.0259 16.3994C60.3339 16.8614 59.5203 17.108 58.6879 17.108C58.1354 17.1143 57.587 17.0106 57.0752 16.8029C56.5632 16.5952 56.0979 16.2878 55.7064 15.8986C55.3148 15.5093 55.005 15.046 54.7949 14.5359C54.5848 14.0257 54.4787 13.4788 54.4828 12.9272ZM60.5127 12.9272C60.5028 12.5691 60.3873 12.2218 60.1808 11.9287C59.9742 11.6358 59.6856 11.41 59.3513 11.2799C59.0169 11.1496 58.6514 11.1207 58.3007 11.1967C57.9499 11.2727 57.6293 11.4501 57.3791 11.707C57.1289 11.9638 56.9599 12.2886 56.8936 12.6407C56.8272 12.9928 56.8663 13.3567 57.006 13.6867C57.1457 14.0168 57.3797 14.2984 57.6788 14.4964C57.978 14.6944 58.3289 14.8 58.6879 14.8C58.9337 14.8066 59.1782 14.7622 59.4059 14.6697C59.6338 14.5772 59.8399 14.4387 60.0113 14.2627C60.1828 14.0867 60.3159 13.8772 60.4021 13.6474C60.4884 13.4175 60.5261 13.1723 60.5127 12.9272Z" fill="black"/>
<path d="M64.0029 6.84479C64.0029 6.56283 64.0867 6.28721 64.2436 6.05278C64.4005 5.81834 64.6236 5.63561 64.8846 5.52771C65.1455 5.41981 65.4327 5.39158 65.7097 5.44658C65.9867 5.50159 66.2412 5.63737 66.441 5.83674C66.6407 6.03611 66.7767 6.29013 66.8318 6.56667C66.8869 6.84321 66.8586 7.12985 66.7505 7.39034C66.6424 7.65084 66.4594 7.87349 66.2245 8.03015C65.9897 8.18679 65.7136 8.27039 65.4311 8.27039C65.0535 8.26663 64.6924 8.11527 64.4254 7.8487C64.1584 7.58215 64.0067 7.22172 64.0029 6.84479ZM64.2434 8.96719H66.6244V16.8872H64.2402L64.2434 8.96719Z" fill="black"/>
<path d="M76.902 12.9272C76.9295 13.4507 76.8531 13.9743 76.6771 14.4682C76.5012 14.962 76.2292 15.4163 75.8767 15.8048C75.5243 16.1933 75.0984 16.5085 74.6235 16.7322C74.1486 16.9558 73.6342 17.0835 73.1096 17.108C72.6685 17.132 72.2277 17.0578 71.8188 16.8907C71.41 16.7235 71.0437 16.4676 70.7462 16.1416V20.0544H68.366V8.96722H70.7462V9.71122C71.0438 9.38546 71.4103 9.12978 71.819 8.96282C72.2278 8.79578 72.6686 8.72162 73.1096 8.74562C73.6342 8.77002 74.1488 8.8977 74.6239 9.12138C75.0989 9.34506 75.5248 9.66026 75.8773 10.0489C76.2298 10.4375 76.5018 10.8919 76.6776 11.3859C76.8534 11.8799 76.9297 12.4037 76.902 12.9272ZM74.5217 12.9272C74.5125 12.5566 74.3938 12.1969 74.1807 11.8931C73.9676 11.5895 73.6696 11.3552 73.3239 11.2199C72.978 11.0844 72.5999 11.0538 72.2368 11.1319C71.8737 11.2099 71.5417 11.3931 71.2824 11.6585C71.023 11.924 70.8479 12.2599 70.7789 12.6243C70.7099 12.9886 70.7501 13.3651 70.8944 13.7067C71.0387 14.0484 71.2808 14.3399 71.5903 14.545C71.8998 14.7499 72.2629 14.8593 72.6344 14.8592C72.8894 14.8706 73.1439 14.8279 73.3813 14.7342C73.6186 14.6405 73.8335 14.4977 74.0116 14.3153C74.1899 14.1328 74.3274 13.9149 74.4153 13.6757C74.5032 13.4365 74.5395 13.1814 74.5217 12.9272Z" fill="black"/>
<path d="M84.2471 14.5104C84.2471 16.332 82.661 17.108 80.9476 17.108C80.2551 17.1706 79.5601 17.0245 78.9519 16.6884C78.3436 16.3524 77.8504 15.842 77.5359 15.2232L79.598 14.0512C79.6814 14.3372 79.8606 14.5861 80.1056 14.7561C80.3505 14.9262 80.647 15.0072 80.9444 14.9856C81.515 14.9856 81.8011 14.8112 81.8011 14.4952C81.8011 13.6232 77.8973 14.0832 77.8973 11.3432C77.8973 9.61603 79.3575 8.74563 81.0077 8.74563C81.628 8.72603 82.2419 8.87291 82.786 9.17091C83.3302 9.46899 83.7846 9.90723 84.1012 10.44L82.0704 11.5328C81.9814 11.3254 81.8332 11.1487 81.644 11.0247C81.4549 10.9008 81.2337 10.8352 81.0077 10.836C80.5949 10.836 80.3409 10.996 80.3409 11.2792C80.3441 12.1824 84.2471 11.58 84.2471 14.5104Z" fill="black"/>
<path d="M92.9417 8.96722V16.8872H90.5615V16.1424C90.2866 16.4711 89.9379 16.73 89.5436 16.898C89.1493 17.066 88.7214 17.1383 88.2934 17.1088C86.6906 17.1088 85.3281 15.9688 85.3281 13.8288V8.96722H87.7084V13.4808C87.6883 13.6695 87.71 13.8602 87.7717 14.0396C87.8326 14.2191 87.9328 14.3831 88.0642 14.5202C88.1956 14.6572 88.3551 14.764 88.5322 14.8332C88.7086 14.9024 88.8985 14.9323 89.0884 14.9208C89.9612 14.9208 90.5639 14.4144 90.5639 13.2896V8.96962L92.9417 8.96722Z" fill="black"/>
<path d="M106.59 12.024V16.8864H104.21V12.2296C104.21 11.4376 103.829 10.9312 103.068 10.9312C102.274 10.9312 101.83 11.4856 101.83 12.42V16.8864H99.4502V12.2296C99.4502 11.4376 99.0695 10.9312 98.3073 10.9312C97.5139 10.9312 97.0699 11.4856 97.0699 12.42V16.8864H94.6897V8.96641H97.0699V9.69441C97.3168 9.37145 97.6406 9.11529 98.0116 8.94945C98.3835 8.78353 98.7906 8.71321 99.1961 8.74481C99.6033 8.72489 100.009 8.81073 100.373 8.99385C100.737 9.17689 101.047 9.45113 101.274 9.78961C101.538 9.43545 101.887 9.15385 102.29 8.97113C102.692 8.78841 103.134 8.71057 103.575 8.74481C105.397 8.74561 106.59 10.044 106.59 12.024Z" fill="black"/>
<path d="M108.603 8.91843C109.579 8.91843 110.37 8.12899 110.37 7.15523C110.37 6.18144 109.579 5.39203 108.603 5.39203C107.628 5.39203 106.837 6.18144 106.837 7.15523C106.837 8.12899 107.628 8.91843 108.603 8.91843Z" fill="black"/>
</svg>
