<svg width="37" height="24" viewBox="0 0 37 24" fill="none" xmlns="http://www.w3.org/2000/svg">
<g clip-path="url(#clip0_4319_4856)">
<path d="M0.449515 3C0.449515 1.48098 1.68093 0.249563 3.19995 0.249563H33.2C34.719 0.249563 35.9504 1.48098 35.9504 3V21C35.9504 22.519 34.719 23.7504 33.2 23.7504H3.19995C1.68093 23.7504 0.449515 22.519 0.449515 21V3Z" fill="white" stroke="#E0E0E0" stroke-width="0.499127"/>
<path d="M21.9567 4.89511L14.21 4.92175L14.4447 19.1041L22.1915 19.0775L21.9567 4.89511Z" fill="#FF5F00"/>
<path d="M14.7197 12.0415C14.6717 9.15694 15.9639 6.59387 17.9879 4.93134C16.4602 3.73251 14.5449 3.01161 12.4687 3.01872C7.54998 3.03557 3.63767 7.08761 3.72062 12.0792C3.80357 17.0708 7.8501 21.0956 12.7688 21.0787C14.845 21.0716 16.7361 20.3377 18.2238 19.1285C16.1452 17.5051 14.7676 14.9261 14.7197 12.0415Z" fill="#EB001B"/>
<path d="M32.6808 11.9205C32.7638 16.9121 28.8515 20.9642 23.9328 20.981C21.8566 20.9881 19.9413 20.2672 18.4135 19.0684C20.4622 17.4058 21.7297 14.8428 21.6818 11.9582C21.6339 9.07363 20.2566 6.51971 18.1776 4.87124C19.6653 3.66207 21.5564 2.92814 23.6327 2.92103C28.5513 2.90418 32.5983 6.95405 32.6808 11.9205Z" fill="#F79E1B"/>
</g>
<defs>
<clipPath id="clip0_4319_4856">
<rect width="36" height="24" fill="white" transform="translate(0.199951)"/>
</clipPath>
</defs>
</svg>
