<svg width="37" height="24" viewBox="0 0 37 24" fill="none" xmlns="http://www.w3.org/2000/svg">
<g clip-path="url(#clip0_4319_4855)">
<path d="M0.449515 3C0.449515 1.48098 1.68093 0.249563 3.19995 0.249563H33.2C34.719 0.249563 35.9504 1.48098 35.9504 3V21C35.9504 22.519 34.719 23.7504 33.2 23.7504H3.19995C1.68093 23.7504 0.449515 22.519 0.449515 21V3Z" fill="white" stroke="#E0E0E0" stroke-width="0.499127"/>
<path d="M31.1816 7.52612H29.2957C28.7255 7.52612 28.2869 7.70156 28.0237 8.27174L24.4272 16.4735H26.9711C26.9711 16.4735 27.4097 15.377 27.4974 15.1138C27.7606 15.1138 30.2606 15.1138 30.6115 15.1138C30.6992 15.4209 30.9185 16.4296 30.9185 16.4296H33.1992L31.1816 7.52612ZM28.1992 13.2717C28.4185 12.7454 29.1641 10.7717 29.1641 10.7717C29.1641 10.8156 29.3834 10.2454 29.4711 9.9384L29.6465 10.7279C29.6465 10.7279 30.129 12.877 30.2167 13.3156H28.1992V13.2717Z" fill="#3362AB"/>
<path d="M24.6033 13.5346C24.6033 15.3767 22.9367 16.6048 20.3489 16.6048C19.2524 16.6048 18.1998 16.3855 17.6296 16.1224L17.9805 14.1048L18.2875 14.2364C19.077 14.5873 19.6033 14.7188 20.5682 14.7188C21.27 14.7188 22.0156 14.4557 22.0156 13.8417C22.0156 13.4469 21.7086 13.1838 20.7437 12.7452C19.8226 12.3066 18.5945 11.6048 18.5945 10.3329C18.5945 8.5785 20.3051 7.39429 22.7174 7.39429C23.6384 7.39429 24.4279 7.56973 24.9103 7.78902L24.5595 9.71885L24.384 9.54341C23.9454 9.36797 23.3753 9.19253 22.5419 9.19253C21.6209 9.23639 21.1823 9.63113 21.1823 9.98201C21.1823 10.3767 21.7086 10.6838 22.5419 11.0785C23.9454 11.7364 24.6033 12.482 24.6033 13.5346Z" fill="#3362AB"/>
<path d="M3.19971 7.61306L3.24357 7.43762H7.0155C7.54181 7.43762 7.93655 7.61306 8.06813 8.18324L8.90146 12.1306C8.06813 10.0253 6.1383 8.31482 3.19971 7.61306Z" fill="#F9B50B"/>
<path d="M14.2088 7.52604L10.393 16.4295H7.80529L5.6123 8.97341C7.19125 9.98218 8.50704 11.5611 8.9895 12.6576L9.25266 13.5787L11.6211 7.48218H14.2088V7.52604Z" fill="#3362AB"/>
<path d="M15.2172 7.48218H17.6295L16.0944 16.4295H13.6821L15.2172 7.48218Z" fill="#3362AB"/>
</g>
<defs>
<clipPath id="clip0_4319_4855">
<rect width="36" height="24" fill="white" transform="translate(0.199951)"/>
</clipPath>
</defs>
</svg>
